<svg width="3315" height="700" viewBox="0 0 3315 700" fill="none" xmlns="http://www.w3.org/2000/svg">
<g clip-path="url(#clip0_98_26)">
<path d="M913.269 350.286V200.372H870.251V151.451H913.269V80.4126H969.771V151.378H1022.54V200.299H969.771V336.371C969.771 354.094 978.346 367.569 994.541 367.569C1003.79 367.639 1012.69 364.06 1019.31 357.609L1032.8 400.598C1022.54 409.753 1005.9 417.296 980.031 417.296C935.914 417.589 913.269 394.227 913.269 350.286Z" fill="white"/>
<path d="M1049.5 411.144V151.451H1106.01V189.167C1125.94 164.414 1157.31 145.226 1190.5 145.226V201.178C1184.84 200.002 1179.06 199.462 1173.28 199.567C1149.1 199.567 1117.29 215.679 1106.01 234.5V411.437H1049.5V411.144Z" fill="white"/>
<path d="M1385.07 411.144V376.724C1373.49 389.49 1359.38 399.714 1343.64 406.748C1327.89 413.783 1310.86 417.474 1293.61 417.589C1237.63 417.589 1209.7 388.295 1209.7 335.346V151.451H1266.21V314.4C1266.21 354.753 1286.65 367.642 1318.97 367.642C1331.8 367.259 1344.38 364.016 1355.79 358.149C1367.2 352.282 1377.16 343.941 1384.93 333.734V151.451H1441.43V411.144H1384.93H1385.07Z" fill="white"/>
<path d="M1474.48 281.005C1474.48 202.496 1529.88 144.933 1608.44 144.933C1659.74 144.933 1689.72 166.464 1707.96 191.145L1670.81 225.053C1664.23 215.379 1655.3 207.538 1644.85 202.272C1634.4 197.006 1622.78 194.487 1611.08 194.953C1564.25 194.953 1532.52 230.472 1532.52 281.005C1532.52 331.537 1564.25 367.569 1611.08 367.569C1622.86 367.827 1634.52 365.101 1644.96 359.646C1655.4 354.191 1664.3 346.184 1670.81 336.371L1707.96 371.304C1689.64 395.472 1659.52 417.516 1608.44 417.516C1529.96 417.589 1474.48 359.513 1474.48 281.005Z" fill="white"/>
<path d="M1970.83 376.724L1996.63 336.371C2020.53 358.754 2051.83 371.578 2084.57 372.403C2118.5 372.403 2135.87 358.415 2135.87 337.982C2135.87 286.717 1978.75 323.335 1978.75 223.442C1978.75 180.965 2015.39 144.933 2081.35 144.933C2118.2 144.045 2154.07 156.888 2181.97 180.965L2158.3 220.732C2148.23 210.622 2136.23 202.648 2123.01 197.287C2109.78 191.926 2095.62 189.289 2081.35 189.534C2052.03 189.534 2033.42 203.522 2033.42 221.831C2033.42 267.53 2190.54 233.109 2190.54 336.371C2190.54 382.583 2152.36 417.589 2082.37 417.589C2037.6 417.589 1997.73 403.089 1970.83 376.724Z" fill="#D6D5D5"/>
<path d="M1903.05 411.144L1823.97 303.561L1787.33 341.205V411.071H1730.83V52.217H1787.33V277.05L1901.95 151.744H1972.01L1864.28 269.214L1974.21 411.144H1903.19H1903.05Z" fill="white"/>
<path d="M2396.25 411.144V376.724C2384.67 389.49 2370.56 399.714 2354.81 406.748C2339.07 413.783 2322.04 417.474 2304.79 417.589C2248.8 417.589 2220.88 388.295 2220.88 335.346V151.451H2277.38V314.4C2277.38 354.753 2297.83 367.642 2330.15 367.642C2342.98 367.259 2355.55 364.016 2366.97 358.149C2378.38 352.282 2388.33 343.941 2396.1 333.734V151.451H2452.61V411.144H2396.1H2396.25Z" fill="#D6D5D5"/>
<path d="M2494.38 84.7335C2494.38 77.8243 2496.43 71.0703 2500.27 65.3255C2504.11 59.5808 2509.57 55.1033 2515.96 52.4593C2522.35 49.8152 2529.37 49.1235 2536.15 50.4714C2542.94 51.8193 2549.16 55.1464 2554.05 60.0319C2558.94 64.9174 2562.27 71.1419 2563.62 77.9183C2564.97 84.6947 2564.28 91.7187 2561.63 98.1019C2558.99 104.485 2554.5 109.941 2548.76 113.78C2543.01 117.618 2536.25 119.667 2529.34 119.667C2524.74 119.677 2520.19 118.78 2515.95 117.027C2511.7 115.275 2507.84 112.702 2504.6 109.457C2501.35 106.211 2498.77 102.356 2497.02 98.1133C2495.27 93.8706 2494.37 89.3237 2494.38 84.7335ZM2500.83 411.144V151.451H2557.33V411.144H2500.83Z" fill="#D6D5D5"/>
<path d="M2617.64 350.286V200.372H2574.62V151.451H2617.64V80.4127H2674.14V151.378H2726.84V200.299H2674.07V336.371C2674.07 354.094 2682.65 367.569 2698.84 367.569C2708.05 367.71 2716.94 364.239 2723.61 357.902L2737.02 400.891C2726.84 410.046 2710.13 417.589 2684.26 417.589C2640.21 417.589 2617.64 394.227 2617.64 350.286Z" fill="#D6D5D5"/>
<path d="M2730.57 281.005C2730.57 205.719 2785.46 144.933 2862.49 144.933C2939.51 144.933 2990 204.107 2990 285.838V299.826H2789.79C2794.11 338.568 2823.13 371.378 2872.09 371.378C2899.64 371.317 2926.16 360.854 2946.32 342.083L2972.12 379.214C2943.02 404.736 2905.37 418.36 2866.66 417.369C2788.17 417.589 2730.57 363.248 2730.57 281.005ZM2861.9 191.218C2813.97 191.218 2791.4 228.348 2789.27 259.547H2935.84C2935.64 250.156 2933.55 240.902 2929.69 232.337C2925.83 223.772 2920.29 216.071 2913.39 209.694C2906.49 203.317 2898.37 198.395 2889.52 195.22C2880.68 192.046 2871.28 190.685 2861.9 191.218Z" fill="#D6D5D5"/>
<path d="M735.408 242.19L595.362 0H425.342L565.315 242.19L457.148 429.38L414.643 429.234L522.81 242.19L382.764 0H212.671L352.717 242.19L244.476 429.38L201.972 429.234L310.139 242.19L170.093 0H0L140.046 242.19L0 484.38H63.7574L203.804 242.19L95.636 55.1464L138.141 54.9999L246.309 242.19L106.262 484.38H276.428L416.475 242.19L308.307 55.1464L350.812 54.9999L458.98 242.19L318.933 484.38H489.026L629.073 242.19L520.978 55.1464L563.41 54.9999L671.651 242.19L531.604 484.38H595.362L735.408 242.19Z" fill="#9F1D20"/>
<path d="M2208.4 651.2C2198 651.2 2188 649.533 2178.4 646.2C2168.93 642.733 2161.6 638.333 2156.4 633L2162.2 621.6C2167.13 626.4 2173.73 630.467 2182 633.8C2190.4 637 2199.2 638.6 2208.4 638.6C2217.2 638.6 2224.33 637.533 2229.8 635.4C2235.4 633.133 2239.47 630.133 2242 626.4C2244.67 622.667 2246 618.533 2246 614C2246 608.533 2244.4 604.133 2241.2 600.8C2238.13 597.467 2234.07 594.867 2229 593C2223.93 591 2218.33 589.267 2212.2 587.8C2206.07 586.333 2199.93 584.8 2193.8 583.2C2187.67 581.467 2182 579.2 2176.8 576.4C2171.73 573.6 2167.6 569.933 2164.4 565.4C2161.33 560.733 2159.8 554.667 2159.8 547.2C2159.8 540.267 2161.6 533.933 2165.2 528.2C2168.93 522.333 2174.6 517.667 2182.2 514.2C2189.8 510.6 2199.53 508.8 2211.4 508.8C2219.27 508.8 2227.07 509.933 2234.8 512.2C2242.53 514.333 2249.2 517.333 2254.8 521.2L2249.8 533C2243.8 529 2237.4 526.067 2230.6 524.2C2223.93 522.333 2217.47 521.4 2211.2 521.4C2202.8 521.4 2195.87 522.533 2190.4 524.8C2184.93 527.067 2180.87 530.133 2178.2 534C2175.67 537.733 2174.4 542 2174.4 546.8C2174.4 552.267 2175.93 556.667 2179 560C2182.2 563.333 2186.33 565.933 2191.4 567.8C2196.6 569.667 2202.27 571.333 2208.4 572.8C2214.53 574.267 2220.6 575.867 2226.6 577.6C2232.73 579.333 2238.33 581.6 2243.4 584.4C2248.6 587.067 2252.73 590.667 2255.8 595.2C2259 599.733 2260.6 605.667 2260.6 613C2260.6 619.8 2258.73 626.133 2255 632C2251.27 637.733 2245.53 642.4 2237.8 646C2230.2 649.467 2220.4 651.2 2208.4 651.2ZM2355.65 650V626.8L2355.05 623V584.2C2355.05 575.267 2352.51 568.4 2347.45 563.6C2342.51 558.8 2335.11 556.4 2325.25 556.4C2318.45 556.4 2311.98 557.533 2305.85 559.8C2299.71 562.067 2294.51 565.067 2290.25 568.8L2283.85 558.2C2289.18 553.667 2295.58 550.2 2303.05 547.8C2310.51 545.267 2318.38 544 2326.65 544C2340.25 544 2350.71 547.4 2358.05 554.2C2365.51 560.867 2369.25 571.067 2369.25 584.8V650H2355.65ZM2319.45 651C2311.58 651 2304.71 649.733 2298.85 647.2C2293.11 644.533 2288.71 640.933 2285.65 636.4C2282.58 631.733 2281.05 626.4 2281.05 620.4C2281.05 614.933 2282.31 610 2284.85 605.6C2287.51 601.067 2291.78 597.467 2297.65 594.8C2303.65 592 2311.65 590.6 2321.65 590.6H2357.85V601.2H2322.05C2311.91 601.2 2304.85 603 2300.85 606.6C2296.98 610.2 2295.05 614.667 2295.05 620C2295.05 626 2297.38 630.8 2302.05 634.4C2306.71 638 2313.25 639.8 2321.65 639.8C2329.65 639.8 2336.51 638 2342.25 634.4C2348.11 630.667 2352.38 625.333 2355.05 618.4L2358.25 628.2C2355.58 635.133 2350.91 640.667 2344.25 644.8C2337.71 648.933 2329.45 651 2319.45 651ZM2407.82 650V501.6H2422.02V650H2407.82ZM2506.13 651C2495.19 651 2485.59 648.733 2477.33 644.2C2469.06 639.533 2462.59 633.2 2457.93 625.2C2453.26 617.067 2450.93 607.8 2450.93 597.4C2450.93 587 2453.13 577.8 2457.53 569.8C2462.06 561.8 2468.19 555.533 2475.93 551C2483.79 546.333 2492.59 544 2502.33 544C2512.19 544 2520.93 546.267 2528.53 550.8C2536.26 555.2 2542.33 561.467 2546.73 569.6C2551.13 577.6 2553.33 586.867 2553.33 597.4C2553.33 598.067 2553.26 598.8 2553.13 599.6C2553.13 600.267 2553.13 601 2553.13 601.8H2461.73V591.2H2545.53L2539.93 595.4C2539.93 587.8 2538.26 581.067 2534.93 575.2C2531.73 569.2 2527.33 564.533 2521.73 561.2C2516.13 557.867 2509.66 556.2 2502.33 556.2C2495.13 556.2 2488.66 557.867 2482.93 561.2C2477.19 564.533 2472.73 569.2 2469.53 575.2C2466.33 581.2 2464.73 588.067 2464.73 595.8V598C2464.73 606 2466.46 613.067 2469.93 619.2C2473.53 625.2 2478.46 629.933 2484.73 633.4C2491.13 636.733 2498.39 638.4 2506.53 638.4C2512.93 638.4 2518.86 637.267 2524.33 635C2529.93 632.733 2534.73 629.267 2538.73 624.6L2546.73 633.8C2542.06 639.4 2536.19 643.667 2529.13 646.6C2522.19 649.533 2514.53 651 2506.13 651ZM2610.43 651C2601.76 651 2593.56 649.8 2585.83 647.4C2578.1 644.867 2572.03 641.733 2567.63 638L2574.03 626.8C2578.3 630 2583.76 632.8 2590.43 635.2C2597.1 637.467 2604.1 638.6 2611.43 638.6C2621.43 638.6 2628.63 637.067 2633.03 634C2637.43 630.8 2639.63 626.6 2639.63 621.4C2639.63 617.533 2638.36 614.533 2635.83 612.4C2633.43 610.133 2630.23 608.467 2626.23 607.4C2622.23 606.2 2617.76 605.2 2612.83 604.4C2607.9 603.6 2602.96 602.667 2598.03 601.6C2593.23 600.533 2588.83 599 2584.83 597C2580.83 594.867 2577.56 592 2575.03 588.4C2572.63 584.8 2571.43 580 2571.43 574C2571.43 568.267 2573.03 563.133 2576.23 558.6C2579.43 554.067 2584.1 550.533 2590.23 548C2596.5 545.333 2604.1 544 2613.03 544C2619.83 544 2626.63 544.933 2633.43 546.8C2640.23 548.533 2645.83 550.867 2650.23 553.8L2644.03 565.2C2639.36 562 2634.36 559.733 2629.03 558.4C2623.7 556.933 2618.36 556.2 2613.03 556.2C2603.56 556.2 2596.56 557.867 2592.03 561.2C2587.63 564.4 2585.43 568.533 2585.43 573.6C2585.43 577.6 2586.63 580.733 2589.03 583C2591.56 585.267 2594.83 587.067 2598.83 588.4C2602.96 589.6 2607.43 590.6 2612.23 591.4C2617.16 592.2 2622.03 593.2 2626.83 594.4C2631.76 595.467 2636.23 597 2640.23 599C2644.36 600.867 2647.63 603.6 2650.03 607.2C2652.56 610.667 2653.83 615.267 2653.83 621C2653.83 627.133 2652.1 632.467 2648.63 637C2645.3 641.4 2640.36 644.867 2633.83 647.4C2627.43 649.8 2619.63 651 2610.43 651ZM2735.23 650V510H2787.63C2799.5 510 2809.7 511.933 2818.23 515.8C2826.76 519.533 2833.3 525 2837.83 532.2C2842.5 539.267 2844.83 547.867 2844.83 558C2844.83 567.867 2842.5 576.4 2837.83 583.6C2833.3 590.667 2826.76 596.133 2818.23 600C2809.7 603.867 2799.5 605.8 2787.63 605.8H2743.43L2750.03 598.8V650H2735.23ZM2750.03 600L2743.43 592.8H2787.23C2801.23 592.8 2811.83 589.8 2819.03 583.8C2826.36 577.667 2830.03 569.067 2830.03 558C2830.03 546.8 2826.36 538.133 2819.03 532C2811.83 525.867 2801.23 522.8 2787.23 522.8H2743.43L2750.03 515.8V600ZM2916.05 651C2905.91 651 2896.78 648.733 2888.65 644.2C2880.65 639.533 2874.31 633.2 2869.65 625.2C2864.98 617.067 2862.65 607.8 2862.65 597.4C2862.65 586.867 2864.98 577.6 2869.65 569.6C2874.31 561.6 2880.65 555.333 2888.65 550.8C2896.65 546.267 2905.78 544 2916.05 544C2926.45 544 2935.65 546.267 2943.65 550.8C2951.78 555.333 2958.11 561.6 2962.65 569.6C2967.31 577.6 2969.65 586.867 2969.65 597.4C2969.65 607.8 2967.31 617.067 2962.65 625.2C2958.11 633.2 2951.78 639.533 2943.65 644.2C2935.51 648.733 2926.31 651 2916.05 651ZM2916.05 638.4C2923.65 638.4 2930.38 636.733 2936.25 633.4C2942.11 629.933 2946.71 625.133 2950.05 619C2953.51 612.733 2955.25 605.533 2955.25 597.4C2955.25 589.133 2953.51 581.933 2950.05 575.8C2946.71 569.667 2942.11 564.933 2936.25 561.6C2930.38 558.133 2923.71 556.4 2916.25 556.4C2908.78 556.4 2902.11 558.133 2896.25 561.6C2890.38 564.933 2885.71 569.667 2882.25 575.8C2878.78 581.933 2877.05 589.133 2877.05 597.4C2877.05 605.533 2878.78 612.733 2882.25 619C2885.71 625.133 2890.38 629.933 2896.25 633.4C2902.11 636.733 2908.71 638.4 2916.05 638.4ZM2998.64 650V545H3012.24V573.6L3010.84 568.6C3013.77 560.6 3018.7 554.533 3025.64 550.4C3032.57 546.133 3041.17 544 3051.44 544V557.8C3050.9 557.8 3050.37 557.8 3049.84 557.8C3049.3 557.667 3048.77 557.6 3048.24 557.6C3037.17 557.6 3028.5 561 3022.24 567.8C3015.97 574.467 3012.84 584 3012.84 596.4V650H2998.64ZM3115.04 651C3105.17 651 3097.57 648.333 3092.24 643C3086.91 637.667 3084.24 630.133 3084.24 620.4V521.8H3098.44V619.6C3098.44 625.733 3099.97 630.467 3103.04 633.8C3106.24 637.133 3110.77 638.8 3116.64 638.8C3122.91 638.8 3128.11 637 3132.24 633.4L3137.24 643.6C3134.44 646.133 3131.04 648 3127.04 649.2C3123.17 650.4 3119.17 651 3115.04 651ZM3065.44 556.8V545H3130.44V556.8H3065.44ZM3228.89 650V626.8L3228.29 623V584.2C3228.29 575.267 3225.76 568.4 3220.69 563.6C3215.76 558.8 3208.36 556.4 3198.49 556.4C3191.69 556.4 3185.22 557.533 3179.09 559.8C3172.96 562.067 3167.76 565.067 3163.49 568.8L3157.09 558.2C3162.42 553.667 3168.82 550.2 3176.29 547.8C3183.76 545.267 3191.62 544 3199.89 544C3213.49 544 3223.96 547.4 3231.29 554.2C3238.76 560.867 3242.49 571.067 3242.49 584.8V650H3228.89ZM3192.69 651C3184.82 651 3177.96 649.733 3172.09 647.2C3166.36 644.533 3161.96 640.933 3158.89 636.4C3155.82 631.733 3154.29 626.4 3154.29 620.4C3154.29 614.933 3155.56 610 3158.09 605.6C3160.76 601.067 3165.02 597.467 3170.89 594.8C3176.89 592 3184.89 590.6 3194.89 590.6H3231.09V601.2H3195.29C3185.16 601.2 3178.09 603 3174.09 606.6C3170.22 610.2 3168.29 614.667 3168.29 620C3168.29 626 3170.62 630.8 3175.29 634.4C3179.96 638 3186.49 639.8 3194.89 639.8C3202.89 639.8 3209.76 638 3215.49 634.4C3221.36 630.667 3225.62 625.333 3228.29 618.4L3231.49 628.2C3228.82 635.133 3224.16 640.667 3217.49 644.8C3210.96 648.933 3202.69 651 3192.69 651ZM3281.06 650V501.6H3295.26V650H3281.06Z" fill="#355669"/>
</g>
<defs>
<clipPath id="clip0_98_26">
<rect width="3315" height="700" fill="white"/>
</clipPath>
</defs>
</svg>
